<svg width="734" height="640" viewBox="0 0 734 640" fill="none" xmlns="http://www.w3.org/2000/svg" xmlns:xlink="http://www.w3.org/1999/xlink">
<rect width="734" height="640" fill="url(#pattern0)"/>
<defs>
<pattern id="pattern0" patternContentUnits="objectBoundingBox" width="1" height="1">
<use xlink:href="#image0" transform="translate(-0.00408719) scale(0.0013624 0.0015625)"/>
</pattern>
<image id="image0" width="740" height="640" xlink:href="img/home.png"/>
</defs>
<path d="M223 534L443.8 542L513 528.3V550L444.5 569.7L223 558.7V534Z" fill="#3595F6" fill-opacity="0.75"/>
<path d="M224 533V508L444.3 511.3L514 508V528L444.7 541L224 533Z" fill="#3595F6" fill-opacity="0.75"/>
<path d="M224 507V482H445H514V505L446 512L224 507Z" fill="#3595F6" fill-opacity="0.75"/>
<path d="M224 483V458L445.3 454.3L513 461V483H445" fill="#3595F6" fill-opacity="0.75"/>
<path d="M224 457V431L445.5 427.7L514 438.7V460L445 453.3L224 457Z" fill="#3595F6" fill-opacity="0.75"/>
<path d="M223 430V406.3L444 394L515 417V438.3L444 426L223 430Z" fill="#3595F6" fill-opacity="0.75"/>
<path d="M223 408V383L445.2 366.7L515 395.3V416L444.7 394.3L223 408Z" fill="#3595F6" fill-opacity="0.75"/>
<path d="M223 383V358L445.5 337.7L515 374.3V395L443 366.3L223 383Z" fill="#3595F6" fill-opacity="0.75"/>
<path d="M223 357V333L446 308.3L515 352.3V374L445.7 336L223 357Z" fill="#3595F6" fill-opacity="0.75"/>
<path d="M223 332V308L445.5 279.3L515 330.3V351L444.7 308.7L223 332Z" fill="#3595F6" fill-opacity="0.75"/>
<path d="M222 308V284L444.3 251L515 310.3V330L445 279.3L222 308Z" fill="#3595F6" fill-opacity="0.75"/>
<path d="M223 283V259L444.2 224L514 288V309L445.3 250.7L223 283Z" fill="#3595F6" fill-opacity="0.75"/>
<path d="M223 259V234L445.3 196L514 266.3V287L445 223L223 259Z" fill="#3595F6" fill-opacity="0.75"/>
<path d="M223 233V208L443.8 164.3L514 243.3V266L445 192.7L223 233Z" fill="#3595F6" fill-opacity="0.75"/>
<path d="M224 209V184L444 136L514 221V244L443.3 164.7L224 209Z" fill="#3595F6" fill-opacity="0.75"/>
<path d="M223 184V159L442.8 107L514 199.3V222L444.3 135.7L223 184Z" fill="#3595F6" fill-opacity="0.75"/>
<path d="M223 159V133L445 76.3L514 178V199L444.7 107.3L223 159Z" fill="#3595F6" fill-opacity="0.75"/>

</svg>
